<mxfile host="app.diagrams.net" agent="Mozilla/5.0 (Macintosh; Intel Mac OS X 10_15_7) AppleWebKit/537.36 (KHTML, like Gecko) Chrome/131.0.0.0 Safari/537.36" version="25.0.3" pages="2">
  <diagram id="C5RBs43oDa-KdzZeNtuy" name="Page-1">
    <mxGraphModel dx="954" dy="639" grid="1" gridSize="10" guides="1" tooltips="1" connect="1" arrows="1" fold="1" page="1" pageScale="1" pageWidth="827" pageHeight="1169" math="0" shadow="0">
      <root>
        <mxCell id="WIyWlLk6GJQsqaUBKTNV-0" />
        <mxCell id="WIyWlLk6GJQsqaUBKTNV-1" parent="WIyWlLk6GJQsqaUBKTNV-0" />
        <mxCell id="lDDxvoh7suUxgxob6qnk-7" style="edgeStyle=orthogonalEdgeStyle;rounded=0;orthogonalLoop=1;jettySize=auto;html=1;exitX=0.5;exitY=1;exitDx=0;exitDy=0;entryX=0.5;entryY=0;entryDx=0;entryDy=0;" edge="1" parent="WIyWlLk6GJQsqaUBKTNV-1" source="WIyWlLk6GJQsqaUBKTNV-3" target="lDDxvoh7suUxgxob6qnk-6">
          <mxGeometry relative="1" as="geometry" />
        </mxCell>
        <mxCell id="WIyWlLk6GJQsqaUBKTNV-3" value="Admin" style="rounded=1;whiteSpace=wrap;html=1;fontSize=12;glass=0;strokeWidth=1;shadow=0;" parent="WIyWlLk6GJQsqaUBKTNV-1" vertex="1">
          <mxGeometry x="385" y="110" width="120" height="40" as="geometry" />
        </mxCell>
        <mxCell id="WIyWlLk6GJQsqaUBKTNV-7" value="Dashboard" style="rounded=1;whiteSpace=wrap;html=1;fontSize=12;glass=0;strokeWidth=1;shadow=0;" parent="WIyWlLk6GJQsqaUBKTNV-1" vertex="1">
          <mxGeometry x="385" y="400" width="120" height="40" as="geometry" />
        </mxCell>
        <mxCell id="lDDxvoh7suUxgxob6qnk-1" value="" style="edgeStyle=orthogonalEdgeStyle;rounded=0;orthogonalLoop=1;jettySize=auto;html=1;" edge="1" parent="WIyWlLk6GJQsqaUBKTNV-1" source="lDDxvoh7suUxgxob6qnk-0" target="WIyWlLk6GJQsqaUBKTNV-3">
          <mxGeometry relative="1" as="geometry" />
        </mxCell>
        <mxCell id="lDDxvoh7suUxgxob6qnk-0" value="Start" style="ellipse;whiteSpace=wrap;html=1;" vertex="1" parent="WIyWlLk6GJQsqaUBKTNV-1">
          <mxGeometry x="400" y="20" width="90" height="40" as="geometry" />
        </mxCell>
        <mxCell id="lDDxvoh7suUxgxob6qnk-4" style="edgeStyle=orthogonalEdgeStyle;rounded=0;orthogonalLoop=1;jettySize=auto;html=1;exitX=0.5;exitY=1;exitDx=0;exitDy=0;entryX=0.5;entryY=0;entryDx=0;entryDy=0;" edge="1" parent="WIyWlLk6GJQsqaUBKTNV-1" source="lDDxvoh7suUxgxob6qnk-2" target="WIyWlLk6GJQsqaUBKTNV-7">
          <mxGeometry relative="1" as="geometry" />
        </mxCell>
        <mxCell id="lDDxvoh7suUxgxob6qnk-10" style="edgeStyle=orthogonalEdgeStyle;rounded=0;orthogonalLoop=1;jettySize=auto;html=1;exitX=1;exitY=0.5;exitDx=0;exitDy=0;entryX=1;entryY=0.5;entryDx=0;entryDy=0;" edge="1" parent="WIyWlLk6GJQsqaUBKTNV-1" source="lDDxvoh7suUxgxob6qnk-2" target="lDDxvoh7suUxgxob6qnk-6">
          <mxGeometry relative="1" as="geometry">
            <Array as="points">
              <mxPoint x="550" y="320" />
              <mxPoint x="550" y="220" />
            </Array>
          </mxGeometry>
        </mxCell>
        <mxCell id="lDDxvoh7suUxgxob6qnk-2" value="correct credential" style="rhombus;whiteSpace=wrap;html=1;" vertex="1" parent="WIyWlLk6GJQsqaUBKTNV-1">
          <mxGeometry x="405" y="280" width="80" height="80" as="geometry" />
        </mxCell>
        <mxCell id="lDDxvoh7suUxgxob6qnk-5" value="Yes" style="text;html=1;align=center;verticalAlign=middle;whiteSpace=wrap;rounded=0;" vertex="1" parent="WIyWlLk6GJQsqaUBKTNV-1">
          <mxGeometry x="430" y="360" width="60" height="30" as="geometry" />
        </mxCell>
        <mxCell id="lDDxvoh7suUxgxob6qnk-8" style="edgeStyle=orthogonalEdgeStyle;rounded=0;orthogonalLoop=1;jettySize=auto;html=1;exitX=0.5;exitY=1;exitDx=0;exitDy=0;entryX=0.5;entryY=0;entryDx=0;entryDy=0;" edge="1" parent="WIyWlLk6GJQsqaUBKTNV-1" source="lDDxvoh7suUxgxob6qnk-6" target="lDDxvoh7suUxgxob6qnk-2">
          <mxGeometry relative="1" as="geometry" />
        </mxCell>
        <mxCell id="lDDxvoh7suUxgxob6qnk-6" value="Login Page" style="rounded=1;whiteSpace=wrap;html=1;" vertex="1" parent="WIyWlLk6GJQsqaUBKTNV-1">
          <mxGeometry x="385" y="200" width="120" height="40" as="geometry" />
        </mxCell>
        <mxCell id="lDDxvoh7suUxgxob6qnk-11" value="No" style="text;html=1;align=center;verticalAlign=middle;whiteSpace=wrap;rounded=0;" vertex="1" parent="WIyWlLk6GJQsqaUBKTNV-1">
          <mxGeometry x="490" y="290" width="60" height="30" as="geometry" />
        </mxCell>
        <mxCell id="lDDxvoh7suUxgxob6qnk-13" value="" style="shape=curlyBracket;whiteSpace=wrap;html=1;rounded=1;labelPosition=left;verticalLabelPosition=middle;align=right;verticalAlign=middle;direction=south;" vertex="1" parent="WIyWlLk6GJQsqaUBKTNV-1">
          <mxGeometry x="210" y="440" width="462.5" height="40" as="geometry" />
        </mxCell>
        <mxCell id="lDDxvoh7suUxgxob6qnk-25" style="edgeStyle=orthogonalEdgeStyle;rounded=0;orthogonalLoop=1;jettySize=auto;html=1;exitX=0.5;exitY=1;exitDx=0;exitDy=0;entryX=0.5;entryY=0;entryDx=0;entryDy=0;" edge="1" parent="WIyWlLk6GJQsqaUBKTNV-1" source="lDDxvoh7suUxgxob6qnk-14" target="lDDxvoh7suUxgxob6qnk-24">
          <mxGeometry relative="1" as="geometry" />
        </mxCell>
        <mxCell id="lDDxvoh7suUxgxob6qnk-14" value="Search By Emp&amp;nbsp;" style="rounded=1;whiteSpace=wrap;html=1;" vertex="1" parent="WIyWlLk6GJQsqaUBKTNV-1">
          <mxGeometry x="150" y="480" width="120" height="40" as="geometry" />
        </mxCell>
        <mxCell id="lDDxvoh7suUxgxob6qnk-15" value="Search by Date" style="rounded=1;whiteSpace=wrap;html=1;" vertex="1" parent="WIyWlLk6GJQsqaUBKTNV-1">
          <mxGeometry x="620" y="480" width="120" height="40" as="geometry" />
        </mxCell>
        <mxCell id="lDDxvoh7suUxgxob6qnk-16" value="List of all time entry for a day" style="rounded=1;whiteSpace=wrap;html=1;" vertex="1" parent="WIyWlLk6GJQsqaUBKTNV-1">
          <mxGeometry x="470" y="480" width="120" height="40" as="geometry" />
        </mxCell>
        <mxCell id="lDDxvoh7suUxgxob6qnk-19" value="Weekly Top performer list" style="rounded=1;whiteSpace=wrap;html=1;" vertex="1" parent="WIyWlLk6GJQsqaUBKTNV-1">
          <mxGeometry x="320" y="480" width="120" height="40" as="geometry" />
        </mxCell>
        <mxCell id="lDDxvoh7suUxgxob6qnk-21" value="" style="endArrow=none;html=1;rounded=0;" edge="1" parent="WIyWlLk6GJQsqaUBKTNV-1">
          <mxGeometry width="50" height="50" relative="1" as="geometry">
            <mxPoint x="370" y="480" as="sourcePoint" />
            <mxPoint x="370" y="460" as="targetPoint" />
          </mxGeometry>
        </mxCell>
        <mxCell id="lDDxvoh7suUxgxob6qnk-22" value="" style="endArrow=none;html=1;rounded=0;" edge="1" parent="WIyWlLk6GJQsqaUBKTNV-1">
          <mxGeometry width="50" height="50" relative="1" as="geometry">
            <mxPoint x="529.5" y="480" as="sourcePoint" />
            <mxPoint x="529.5" y="460" as="targetPoint" />
          </mxGeometry>
        </mxCell>
        <mxCell id="lDDxvoh7suUxgxob6qnk-24" value="List of time entry of Specific emp" style="rounded=1;whiteSpace=wrap;html=1;" vertex="1" parent="WIyWlLk6GJQsqaUBKTNV-1">
          <mxGeometry x="150" y="555" width="120" height="45" as="geometry" />
        </mxCell>
        <mxCell id="lDDxvoh7suUxgxob6qnk-26" value="List of all emp of Specific date" style="rounded=1;whiteSpace=wrap;html=1;" vertex="1" parent="WIyWlLk6GJQsqaUBKTNV-1">
          <mxGeometry x="630" y="555" width="120" height="45" as="geometry" />
        </mxCell>
        <mxCell id="lDDxvoh7suUxgxob6qnk-28" style="edgeStyle=orthogonalEdgeStyle;rounded=0;orthogonalLoop=1;jettySize=auto;html=1;exitX=0.5;exitY=1;exitDx=0;exitDy=0;entryX=0.408;entryY=0;entryDx=0;entryDy=0;entryPerimeter=0;" edge="1" parent="WIyWlLk6GJQsqaUBKTNV-1" source="lDDxvoh7suUxgxob6qnk-15" target="lDDxvoh7suUxgxob6qnk-26">
          <mxGeometry relative="1" as="geometry" />
        </mxCell>
      </root>
    </mxGraphModel>
  </diagram>
  <diagram id="onQ0fEKLlDa7h6Y8T73T" name="Page-2">
    <mxGraphModel dx="954" dy="639" grid="1" gridSize="10" guides="1" tooltips="1" connect="1" arrows="1" fold="1" page="1" pageScale="1" pageWidth="850" pageHeight="1100" math="0" shadow="0">
      <root>
        <mxCell id="0" />
        <mxCell id="1" parent="0" />
        <mxCell id="nStN-9YolOoLrtS0YBtl-29" style="edgeStyle=orthogonalEdgeStyle;rounded=0;orthogonalLoop=1;jettySize=auto;html=1;exitX=0.5;exitY=1;exitDx=0;exitDy=0;entryX=0.5;entryY=0;entryDx=0;entryDy=0;" edge="1" parent="1" source="nStN-9YolOoLrtS0YBtl-2" target="nStN-9YolOoLrtS0YBtl-28">
          <mxGeometry relative="1" as="geometry" />
        </mxCell>
        <mxCell id="nStN-9YolOoLrtS0YBtl-2" value="Employee" style="rounded=1;whiteSpace=wrap;html=1;fontSize=12;glass=0;strokeWidth=1;shadow=0;" vertex="1" parent="1">
          <mxGeometry x="385" y="110" width="120" height="40" as="geometry" />
        </mxCell>
        <mxCell id="nStN-9YolOoLrtS0YBtl-3" value="Dashboard" style="rounded=1;whiteSpace=wrap;html=1;fontSize=12;glass=0;strokeWidth=1;shadow=0;" vertex="1" parent="1">
          <mxGeometry x="395" y="590" width="120" height="40" as="geometry" />
        </mxCell>
        <mxCell id="nStN-9YolOoLrtS0YBtl-4" value="" style="edgeStyle=orthogonalEdgeStyle;rounded=0;orthogonalLoop=1;jettySize=auto;html=1;" edge="1" parent="1" source="nStN-9YolOoLrtS0YBtl-5" target="nStN-9YolOoLrtS0YBtl-2">
          <mxGeometry relative="1" as="geometry" />
        </mxCell>
        <mxCell id="nStN-9YolOoLrtS0YBtl-5" value="Start" style="ellipse;whiteSpace=wrap;html=1;" vertex="1" parent="1">
          <mxGeometry x="400" y="20" width="90" height="40" as="geometry" />
        </mxCell>
        <mxCell id="nStN-9YolOoLrtS0YBtl-6" style="edgeStyle=orthogonalEdgeStyle;rounded=0;orthogonalLoop=1;jettySize=auto;html=1;exitX=0.5;exitY=1;exitDx=0;exitDy=0;entryX=0.5;entryY=0;entryDx=0;entryDy=0;" edge="1" parent="1" source="nStN-9YolOoLrtS0YBtl-8" target="nStN-9YolOoLrtS0YBtl-3">
          <mxGeometry relative="1" as="geometry" />
        </mxCell>
        <mxCell id="nStN-9YolOoLrtS0YBtl-7" style="edgeStyle=orthogonalEdgeStyle;rounded=0;orthogonalLoop=1;jettySize=auto;html=1;exitX=1;exitY=0.5;exitDx=0;exitDy=0;entryX=1;entryY=0.5;entryDx=0;entryDy=0;" edge="1" parent="1" source="nStN-9YolOoLrtS0YBtl-8" target="nStN-9YolOoLrtS0YBtl-11">
          <mxGeometry relative="1" as="geometry">
            <Array as="points">
              <mxPoint x="560" y="510" />
              <mxPoint x="560" y="410" />
            </Array>
          </mxGeometry>
        </mxCell>
        <mxCell id="nStN-9YolOoLrtS0YBtl-8" value="correct credential" style="rhombus;whiteSpace=wrap;html=1;" vertex="1" parent="1">
          <mxGeometry x="415" y="470" width="80" height="80" as="geometry" />
        </mxCell>
        <mxCell id="nStN-9YolOoLrtS0YBtl-9" value="Yes" style="text;html=1;align=center;verticalAlign=middle;whiteSpace=wrap;rounded=0;" vertex="1" parent="1">
          <mxGeometry x="440" y="550" width="60" height="30" as="geometry" />
        </mxCell>
        <mxCell id="nStN-9YolOoLrtS0YBtl-10" style="edgeStyle=orthogonalEdgeStyle;rounded=0;orthogonalLoop=1;jettySize=auto;html=1;exitX=0.5;exitY=1;exitDx=0;exitDy=0;entryX=0.5;entryY=0;entryDx=0;entryDy=0;" edge="1" parent="1" source="nStN-9YolOoLrtS0YBtl-11" target="nStN-9YolOoLrtS0YBtl-8">
          <mxGeometry relative="1" as="geometry" />
        </mxCell>
        <mxCell id="nStN-9YolOoLrtS0YBtl-11" value="Login Page" style="rounded=1;whiteSpace=wrap;html=1;" vertex="1" parent="1">
          <mxGeometry x="395" y="390" width="120" height="40" as="geometry" />
        </mxCell>
        <mxCell id="nStN-9YolOoLrtS0YBtl-12" value="No" style="text;html=1;align=center;verticalAlign=middle;whiteSpace=wrap;rounded=0;" vertex="1" parent="1">
          <mxGeometry x="500" y="480" width="60" height="30" as="geometry" />
        </mxCell>
        <mxCell id="nStN-9YolOoLrtS0YBtl-13" value="" style="shape=curlyBracket;whiteSpace=wrap;html=1;rounded=1;labelPosition=left;verticalLabelPosition=middle;align=right;verticalAlign=middle;direction=south;" vertex="1" parent="1">
          <mxGeometry x="220" y="630" width="462.5" height="40" as="geometry" />
        </mxCell>
        <mxCell id="nStN-9YolOoLrtS0YBtl-14" style="edgeStyle=orthogonalEdgeStyle;rounded=0;orthogonalLoop=1;jettySize=auto;html=1;exitX=0.5;exitY=1;exitDx=0;exitDy=0;entryX=0.5;entryY=0;entryDx=0;entryDy=0;" edge="1" parent="1" source="nStN-9YolOoLrtS0YBtl-15" target="nStN-9YolOoLrtS0YBtl-21">
          <mxGeometry relative="1" as="geometry" />
        </mxCell>
        <mxCell id="nStN-9YolOoLrtS0YBtl-15" value="Automatic Time Entry" style="rounded=1;whiteSpace=wrap;html=1;" vertex="1" parent="1">
          <mxGeometry x="160" y="670" width="120" height="40" as="geometry" />
        </mxCell>
        <mxCell id="nStN-9YolOoLrtS0YBtl-16" value="Manual Time Entry" style="rounded=1;whiteSpace=wrap;html=1;" vertex="1" parent="1">
          <mxGeometry x="630" y="670" width="120" height="40" as="geometry" />
        </mxCell>
        <mxCell id="nStN-9YolOoLrtS0YBtl-17" value="Manual Time Entry&amp;nbsp;" style="rounded=1;whiteSpace=wrap;html=1;" vertex="1" parent="1">
          <mxGeometry x="391.25" y="670" width="120" height="40" as="geometry" />
        </mxCell>
        <mxCell id="nStN-9YolOoLrtS0YBtl-43" style="edgeStyle=orthogonalEdgeStyle;rounded=0;orthogonalLoop=1;jettySize=auto;html=1;exitX=0.5;exitY=1;exitDx=0;exitDy=0;entryX=0.5;entryY=0;entryDx=0;entryDy=0;" edge="1" parent="1" source="nStN-9YolOoLrtS0YBtl-21" target="nStN-9YolOoLrtS0YBtl-39">
          <mxGeometry relative="1" as="geometry">
            <Array as="points">
              <mxPoint x="455" y="870" />
              <mxPoint x="610" y="870" />
            </Array>
          </mxGeometry>
        </mxCell>
        <mxCell id="nStN-9YolOoLrtS0YBtl-45" style="edgeStyle=orthogonalEdgeStyle;rounded=0;orthogonalLoop=1;jettySize=auto;html=1;exitX=0.5;exitY=1;exitDx=0;exitDy=0;" edge="1" parent="1" source="nStN-9YolOoLrtS0YBtl-21" target="nStN-9YolOoLrtS0YBtl-44">
          <mxGeometry relative="1" as="geometry">
            <Array as="points">
              <mxPoint x="455" y="870" />
              <mxPoint x="320" y="870" />
            </Array>
          </mxGeometry>
        </mxCell>
        <mxCell id="nStN-9YolOoLrtS0YBtl-21" value="Create Time entry" style="rounded=1;whiteSpace=wrap;html=1;" vertex="1" parent="1">
          <mxGeometry x="395" y="820" width="120" height="45" as="geometry" />
        </mxCell>
        <mxCell id="nStN-9YolOoLrtS0YBtl-23" style="edgeStyle=orthogonalEdgeStyle;rounded=0;orthogonalLoop=1;jettySize=auto;html=1;exitX=0.5;exitY=1;exitDx=0;exitDy=0;entryX=0.608;entryY=-0.067;entryDx=0;entryDy=0;entryPerimeter=0;" edge="1" parent="1" source="nStN-9YolOoLrtS0YBtl-16" target="nStN-9YolOoLrtS0YBtl-21">
          <mxGeometry relative="1" as="geometry">
            <mxPoint x="688.96" y="745" as="targetPoint" />
          </mxGeometry>
        </mxCell>
        <mxCell id="nStN-9YolOoLrtS0YBtl-25" value="Sign up" style="rhombus;whiteSpace=wrap;html=1;" vertex="1" parent="1">
          <mxGeometry x="405" y="260" width="80" height="80" as="geometry" />
        </mxCell>
        <mxCell id="nStN-9YolOoLrtS0YBtl-27" style="edgeStyle=orthogonalEdgeStyle;rounded=0;orthogonalLoop=1;jettySize=auto;html=1;exitX=0.5;exitY=1;exitDx=0;exitDy=0;entryX=0.417;entryY=-0.075;entryDx=0;entryDy=0;entryPerimeter=0;" edge="1" parent="1" source="nStN-9YolOoLrtS0YBtl-25" target="nStN-9YolOoLrtS0YBtl-11">
          <mxGeometry relative="1" as="geometry" />
        </mxCell>
        <mxCell id="nStN-9YolOoLrtS0YBtl-30" style="edgeStyle=orthogonalEdgeStyle;rounded=0;orthogonalLoop=1;jettySize=auto;html=1;exitX=0.5;exitY=1;exitDx=0;exitDy=0;entryX=0.5;entryY=0;entryDx=0;entryDy=0;" edge="1" parent="1" source="nStN-9YolOoLrtS0YBtl-28" target="nStN-9YolOoLrtS0YBtl-25">
          <mxGeometry relative="1" as="geometry" />
        </mxCell>
        <mxCell id="nStN-9YolOoLrtS0YBtl-28" value="Signup Page" style="rounded=1;whiteSpace=wrap;html=1;" vertex="1" parent="1">
          <mxGeometry x="385" y="190" width="120" height="40" as="geometry" />
        </mxCell>
        <mxCell id="nStN-9YolOoLrtS0YBtl-34" style="edgeStyle=orthogonalEdgeStyle;rounded=0;orthogonalLoop=1;jettySize=auto;html=1;exitX=1;exitY=0.5;exitDx=0;exitDy=0;entryX=1;entryY=0.5;entryDx=0;entryDy=0;" edge="1" parent="1">
          <mxGeometry relative="1" as="geometry">
            <Array as="points">
              <mxPoint x="550" y="300" />
              <mxPoint x="550" y="200" />
            </Array>
            <mxPoint x="485" y="300" as="sourcePoint" />
            <mxPoint x="505" y="200" as="targetPoint" />
          </mxGeometry>
        </mxCell>
        <mxCell id="nStN-9YolOoLrtS0YBtl-36" value="Yes" style="text;html=1;align=center;verticalAlign=middle;whiteSpace=wrap;rounded=0;" vertex="1" parent="1">
          <mxGeometry x="430" y="350" width="60" height="30" as="geometry" />
        </mxCell>
        <mxCell id="nStN-9YolOoLrtS0YBtl-37" value="&lt;span style=&quot;color: rgb(0, 0, 0); font-family: Helvetica; font-size: 12px; font-style: normal; font-variant-ligatures: normal; font-variant-caps: normal; font-weight: 400; letter-spacing: normal; orphans: 2; text-align: center; text-indent: 0px; text-transform: none; widows: 2; word-spacing: 0px; -webkit-text-stroke-width: 0px; white-space: normal; background-color: rgb(251, 251, 251); text-decoration-thickness: initial; text-decoration-style: initial; text-decoration-color: initial; display: inline !important; float: none;&quot;&gt;No&lt;/span&gt;" style="text;whiteSpace=wrap;html=1;" vertex="1" parent="1">
          <mxGeometry x="500" y="270" width="50" height="40" as="geometry" />
        </mxCell>
        <mxCell id="nStN-9YolOoLrtS0YBtl-38" value="" style="endArrow=none;html=1;rounded=0;" edge="1" parent="1">
          <mxGeometry width="50" height="50" relative="1" as="geometry">
            <mxPoint x="450.75" y="670" as="sourcePoint" />
            <mxPoint x="450.75" y="640" as="targetPoint" />
          </mxGeometry>
        </mxCell>
        <mxCell id="nStN-9YolOoLrtS0YBtl-39" value="Date Filter on Time entry" style="rounded=1;whiteSpace=wrap;html=1;" vertex="1" parent="1">
          <mxGeometry x="550" y="890" width="120" height="40" as="geometry" />
        </mxCell>
        <mxCell id="nStN-9YolOoLrtS0YBtl-40" value="Filtered Data" style="rounded=1;whiteSpace=wrap;html=1;" vertex="1" parent="1">
          <mxGeometry x="560" y="970" width="120" height="40" as="geometry" />
        </mxCell>
        <mxCell id="nStN-9YolOoLrtS0YBtl-42" style="edgeStyle=orthogonalEdgeStyle;rounded=0;orthogonalLoop=1;jettySize=auto;html=1;exitX=0.5;exitY=1;exitDx=0;exitDy=0;entryX=0.417;entryY=0.025;entryDx=0;entryDy=0;entryPerimeter=0;" edge="1" parent="1" source="nStN-9YolOoLrtS0YBtl-39" target="nStN-9YolOoLrtS0YBtl-40">
          <mxGeometry relative="1" as="geometry" />
        </mxCell>
        <mxCell id="nStN-9YolOoLrtS0YBtl-47" style="edgeStyle=orthogonalEdgeStyle;rounded=0;orthogonalLoop=1;jettySize=auto;html=1;exitX=0.5;exitY=1;exitDx=0;exitDy=0;entryX=0.5;entryY=0;entryDx=0;entryDy=0;" edge="1" parent="1" source="nStN-9YolOoLrtS0YBtl-44" target="nStN-9YolOoLrtS0YBtl-46">
          <mxGeometry relative="1" as="geometry" />
        </mxCell>
        <mxCell id="nStN-9YolOoLrtS0YBtl-44" value="Edit Entry" style="rounded=1;whiteSpace=wrap;html=1;" vertex="1" parent="1">
          <mxGeometry x="260" y="890" width="120" height="40" as="geometry" />
        </mxCell>
        <mxCell id="nStN-9YolOoLrtS0YBtl-46" value="Edit Entry" style="rounded=1;whiteSpace=wrap;html=1;" vertex="1" parent="1">
          <mxGeometry x="260" y="970" width="120" height="40" as="geometry" />
        </mxCell>
        <mxCell id="nStN-9YolOoLrtS0YBtl-48" value="" style="shape=curlyBracket;whiteSpace=wrap;html=1;rounded=1;flipH=1;labelPosition=right;verticalLabelPosition=middle;align=left;verticalAlign=middle;direction=north;" vertex="1" parent="1">
          <mxGeometry x="320" y="1010" width="320" height="40" as="geometry" />
        </mxCell>
        <mxCell id="nStN-9YolOoLrtS0YBtl-49" value="End" style="ellipse;whiteSpace=wrap;html=1;" vertex="1" parent="1">
          <mxGeometry x="440" y="1050" width="80" height="40" as="geometry" />
        </mxCell>
      </root>
    </mxGraphModel>
  </diagram>
</mxfile>
